<?xml version="1.0" encoding="UTF-8"?> <!-- Generator: Adobe Illustrator 22.0.1, SVG Export Plug-In . SVG Version: 6.00 Build 0) --> <svg xmlns="http://www.w3.org/2000/svg" xmlns:xlink="http://www.w3.org/1999/xlink" id="Слой_1" x="0px" y="0px" viewBox="0 0 213 212" style="enable-background:new 0 0 213 212;" xml:space="preserve"> <style type="text/css"> .st0{fill:none;stroke:#FF8800;stroke-width:3;stroke-linecap:round;stroke-linejoin:round;stroke-miterlimit:10;} .st1{fill:#FFFFFF;stroke:#FF8800;stroke-width:3;stroke-linecap:round;stroke-linejoin:round;stroke-miterlimit:10;} .st2{fill:#03DEF2;stroke:#FF8800;stroke-miterlimit:10;} </style> <path class="st0" d="M114.2,104.5c1-4,3.1-7.6,5.8-10.6c7.9-8.8,29.3-27.8,55.8-13.8c19,10,20.7,31.8,10.3,42.9 c-8,8.5-23.4,12.8-34.5,2.8c-14.7-13.3-25.3-19.5-33.8-16.2C113.3,111.4,113.3,108.1,114.2,104.5z"></path> <path class="st0" d="M108.4,114c4,1.1,7.6,3.2,10.6,6c8.7,8.1,27.4,29.6,12.6,55.5c-10.5,18.6-32.7,16.9-43.6,9.2 c-9.5-6.8-12.4-23.5-2.1-34.2c13.2-13.7,21.8-20,17.1-33.1C101.5,112.9,104.8,113,108.4,114z"></path> <path class="st0" d="M98.6,107.6c-1,4-3,7.6-5.7,10.7c-7.9,8.9-29,28.1-55.7,14.3c-19.1-9.8-17.9-33.4-10.7-42.8 c8.6-11.2,23.3-13,34.5-3.2c14.2,12.6,20.9,20.9,34,15.8C99.4,100.8,99.5,104,98.6,107.6z"></path> <path class="st0" d="M105.2,99.4c-4-1-7.7-3-10.8-5.7c-8.9-7.8-28.4-29-14.2-55.2c10.1-18.5,33.2-18.8,43.3-10.4 c9,7.5,13,23.1,3,34.1c-12.8,14-21.2,20.6-16.2,33.5C112.1,100.3,108.8,100.3,105.2,99.4z"></path> <path class="st1" d="M106.5,115.8c5.6,0,10.1-4.5,10.1-10c0-5.5-4.5-10-10.1-10c-5.6,0-10.1,4.5-10.1,10 C96.4,111.3,100.9,115.8,106.5,115.8z"></path> <path class="st0" d="M49,80.6c3.6-8.1,8.9-15.4,15.5-21.2"></path> <path class="st0" d="M79.7,162.6c-8.6-4.1-16.2-10-22.1-17.3"></path> <path class="st0" d="M164.6,132.1c-3.5,7.5-8.4,14.1-14.4,19.7"></path> <path class="st0" d="M132.7,48.6c0.4,0.2,0.7,0.3,1.1,0.5c7.5,3.5,14.2,8.4,19.7,14.3"></path> <path class="st0" d="M37.2,81.6c3.7-10.3,9.6-19.6,17.2-27.2"></path> <path class="st0" d="M80.6,174.3c-10.4-3.9-19.7-10.1-27.2-17.9"></path> <path class="st0" d="M177,129.5c-3.5,10.1-9.1,19.1-16.3,26.7"></path> <path class="st0" d="M129.8,36.3c10.7,3.4,20.3,9.2,28.3,16.8"></path> <path class="st2" d="M163.2,58.6c0.6,0,1.1-0.5,1.1-1c0-0.6-0.5-1-1.1-1c-0.6,0-1.1,0.5-1.1,1C162.1,58.2,162.6,58.6,163.2,58.6z"></path> <path class="st2" d="M151.3,157.5c0.5,0,1-0.4,1-1c0-0.5-0.4-1-1-1c-0.5,0-1,0.4-1,1C150.3,157.1,150.7,157.5,151.3,157.5z"></path> <path class="st2" d="M48.7,152.7c0.6,0,1.1-0.5,1.1-1s-0.5-1-1.1-1s-1.1,0.5-1.1,1S48.1,152.7,48.7,152.7z"></path> <path class="st2" d="M63.5,55.5c0.5,0,1-0.4,1-1c0-0.5-0.4-1-1-1s-1,0.4-1,1C62.5,55.1,63,55.5,63.5,55.5z"></path> <path class="st0" d="M106.5,209.6c58,0,104.9-46.5,104.9-103.9c0-57.4-47-103.9-104.9-103.9C48.6,1.9,1.6,48.4,1.6,105.7 C1.6,163.1,48.6,209.6,106.5,209.6z"></path> <path class="st0" d="M106.5,209.6c58,0,104.9-46.5,104.9-103.9c0-57.4-47-103.9-104.9-103.9C48.6,1.9,1.6,48.4,1.6,105.7 C1.6,163.1,48.6,209.6,106.5,209.6z"></path> </svg> 