<?xml version="1.0" encoding="UTF-8"?> <svg xmlns="http://www.w3.org/2000/svg" width="535" height="58" viewBox="0 0 535 58" fill="none"> <path fill-rule="evenodd" clip-rule="evenodd" d="M144.254 0.257812V55.6516H136.969V0.257812H144.254Z" fill="#FF8800"></path> <path fill-rule="evenodd" clip-rule="evenodd" d="M413.634 38.037L430.428 51.2479L426.004 57.173L409.033 43.8442L408.97 43.7799C403.414 39.012 406.118 30.3547 413.1 28.8975C418.058 27.8368 421.832 23.6153 421.832 18.3867C421.832 12.4937 417.167 7.72579 411.402 7.72579H378.422C372.657 7.72579 367.992 12.4937 367.992 18.3867V55.6515H360.717V18.3867C360.717 8.36865 368.652 0.257812 378.422 0.257812H411.402C421.182 0.257812 429.107 8.36865 429.107 18.3867C429.107 27.1618 422.922 34.4262 414.578 36.1834C413.697 36.3655 412.806 37.2763 413.634 38.037Z" fill="#FF8800"></path> <path fill-rule="evenodd" clip-rule="evenodd" d="M467.149 48.122H508.242C534.271 48.0898 534.271 7.63204 508.242 7.63204H467.149V48.122ZM459.874 0.164062H508.253C543.915 0.164062 543.915 55.5578 508.253 55.5578H459.874V0.164062Z" fill="#FF8800"></path> <path fill-rule="evenodd" clip-rule="evenodd" d="M234.511 48.1133H201.532C195.766 48.1133 191.102 43.3454 191.102 37.4845V0.1875H183.795V37.4845C183.795 47.4811 191.73 55.5813 201.532 55.5813H234.511V48.1133Z" fill="#FF8800"></path> <path fill-rule="evenodd" clip-rule="evenodd" d="M264.159 24.2475H311.08V31.6833H264.159V41.8621C264.064 44.9585 267.041 48.205 271.287 48.205H330.065V55.6408L271.287 55.673C262.345 55.673 256.936 48.7193 256.873 41.9156V14.0152C256.936 7.17935 262.345 0.257812 271.287 0.257812L330.065 0.289956V7.72579H271.287C267.041 7.72579 264.064 10.9401 264.159 14.0687V24.2475Z" fill="#FF8800"></path> <path fill-rule="evenodd" clip-rule="evenodd" d="M51.5417 13.0272C39.3815 -7.93025 0.993164 -3.09803 0.993164 27.5775V55.6386H8.29974V27.5775C8.29974 0.97346 47.8832 0.97346 47.9146 27.5775V48.0421H55.1897V27.5775C55.1897 0.97346 94.8046 0.97346 94.8046 27.5775V55.6386H102.111L102.08 27.5775C102.08 -3.09803 63.6914 -7.93025 51.5417 13.0272Z" fill="#FF8800"></path> </svg> 