<svg width="50" height="50" viewBox="0 0 50 50" fill="none" xmlns="http://www.w3.org/2000/svg">
<path d="M33.75 12.5C34.0426 12.4999 34.3259 12.6025 34.5507 12.7898C34.7754 12.9771 34.9274 13.2372 34.98 13.525L35 13.75V36.25C35.0006 36.5624 34.8842 36.8637 34.6738 37.0945C34.4633 37.3253 34.1741 37.469 33.863 37.4972C33.5519 37.5254 33.2415 37.4362 32.993 37.247C32.7444 37.0578 32.5757 36.7824 32.52 36.475L32.5 36.25V13.75C32.5 13.4185 32.6317 13.1006 32.8662 12.8662C33.1006 12.6317 33.4185 12.5 33.75 12.5ZM14.115 12.865C14.3222 12.6583 14.5953 12.5309 14.8867 12.5048C15.1782 12.4788 15.4695 12.5558 15.71 12.7225L15.885 12.865L27.135 24.115C27.3417 24.3222 27.4692 24.5953 27.4952 24.8867C27.5213 25.1782 27.4442 25.4695 27.2775 25.71L27.135 25.885L15.885 37.135C15.6646 37.3565 15.3691 37.4873 15.057 37.5018C14.7448 37.5162 14.4386 37.4132 14.1986 37.2131C13.9586 37.0129 13.8023 36.7302 13.7604 36.4205C13.7186 36.1108 13.7943 35.7967 13.9725 35.54L14.115 35.365L24.4825 25L14.115 14.635C13.9986 14.5189 13.9063 14.381 13.8433 14.2291C13.7802 14.0773 13.7478 13.9145 13.7478 13.75C13.7478 13.5856 13.7802 13.4228 13.8433 13.2709C13.9063 13.1191 13.9986 12.9811 14.115 12.865Z" fill="black"/>
</svg>
