<svg width="50" height="50" viewBox="0 0 50 50" fill="none" xmlns="http://www.w3.org/2000/svg">
<path d="M15 12.5C14.7074 12.4999 14.4241 12.6025 14.1994 12.7898C13.9746 12.9771 13.8227 13.2372 13.77 13.525L13.75 13.75V36.25C13.7494 36.5624 13.8658 36.8637 14.0763 37.0945C14.2867 37.3253 14.576 37.469 14.8871 37.4972C15.1981 37.5254 15.5085 37.4362 15.7571 37.247C16.0056 37.0578 16.1744 36.7824 16.23 36.475L16.25 36.25V13.75C16.25 13.4185 16.1183 13.1006 15.8839 12.8662C15.6495 12.6317 15.3315 12.5 15 12.5ZM34.635 12.865C34.4279 12.6583 34.1548 12.5309 33.8633 12.5048C33.5719 12.4788 33.2805 12.5558 33.04 12.7225L32.865 12.865L21.615 24.115C21.4083 24.3222 21.2808 24.5953 21.2548 24.8867C21.2288 25.1782 21.3058 25.4695 21.4725 25.71L21.615 25.885L32.865 37.135C33.0855 37.3565 33.3809 37.4873 33.6931 37.5018C34.0052 37.5162 34.3115 37.4132 34.5515 37.2131C34.7914 37.0129 34.9478 36.7302 34.9896 36.4205C35.0314 36.1108 34.9558 35.7967 34.7775 35.54L34.635 35.365L24.2675 25L34.635 14.635C34.7514 14.5189 34.8438 14.381 34.9068 14.2291C34.9698 14.0773 35.0022 13.9145 35.0022 13.75C35.0022 13.5856 34.9698 13.4228 34.9068 13.2709C34.8438 13.1191 34.7514 12.9811 34.635 12.865V12.865Z" fill="black"/>
</svg>
